<?xml version="1.0" encoding="utf-8"?>
<!-- Generator: Adobe Illustrator 27.5.0, SVG Export Plug-In . SVG Version: 6.00 Build 0)  -->
<svg version="1.1" xmlns="http://www.w3.org/2000/svg" xmlns:xlink="http://www.w3.org/1999/xlink" x="0px" y="0px"
	 viewBox="0 0 500 500" style="enable-background:new 0 0 500 500;" xml:space="preserve">
<g id="Floor">
	<ellipse style="fill:#F5F5F5;" cx="250" cy="350.75" rx="224.575" ry="129.658"/>
</g>
<g id="Plant">
	<g>
		<g>
			<path style="fill:#BA68C8;" d="M98.661,330.053l-9.146,5.313c0,0,4.615-14.733,2.054-29.554c-0.967-5.594-3.002-8.373-3.72-9.866
				c-0.718-1.493-6.233-10.737-1.378-14.999c4.855-4.261,16.245,4.215,15.734,27.041C101.942,319.704,98.661,330.053,98.661,330.053
				z"/>
			<path style="opacity:0.3;" d="M98.661,330.053l-9.146,5.313c0,0,4.615-14.733,2.054-29.554c-0.967-5.594-3.002-8.373-3.72-9.866
				c-0.718-1.493-6.233-10.737-1.378-14.999c4.855-4.261,16.245,4.215,15.734,27.041C101.942,319.704,98.661,330.053,98.661,330.053
				z"/>
			<path style="fill:#FFFFFF;" d="M94.409,332.946c-0.048,0-0.098-0.009-0.146-0.026c-0.219-0.08-0.332-0.323-0.251-0.543
				c0.034-0.094,3.44-9.567,3.26-24.805c-0.179-15.157-8.081-23.177-8.161-23.256c-0.166-0.165-0.167-0.433-0.002-0.598
				c0.165-0.165,0.433-0.167,0.598-0.002c0.083,0.081,8.228,8.347,8.411,23.847c0.182,15.405-3.277,25.011-3.312,25.106
				C94.743,332.84,94.581,332.946,94.409,332.946z"/>
		</g>
		<g>
			<path style="fill:#BA68C8;" d="M91.567,334.204l-15.11,8.887c0,0-6.919-1.019-6.395-7.532c0.524-6.513,3.334-8.047-0.166-10.909
				c-3.5-2.861-4.404-3.051-4.236-5.856c0.167-2.805,2.055-4.028,2.942-5.14c0.888-1.112,3.363-3.443,1.621-6.826
				c-1.742-3.383-4.101-6.65-0.597-8.201c2.091-0.926,5.608,0.234,7.94,2.709c2.331,2.475,4.254,4.254,6.463,4.828
				c2.209,0.575,6.814,0.62,6.659,4.426c-0.155,3.806-1.143,5.12-0.22,6.809C92.207,320.583,99.635,322.297,91.567,334.204z"/>
			<path style="fill:#FFFFFF;" d="M85.414,338.246c-0.012,0-0.023,0-0.035-0.001c-0.233-0.019-0.406-0.223-0.388-0.456
				c0.018-0.222,1.625-22.361-13.731-36.875c-0.17-0.161-0.177-0.428-0.017-0.598c0.162-0.169,0.43-0.177,0.598-0.017
				c15.657,14.798,14.012,37.333,13.994,37.559C85.817,338.078,85.632,338.246,85.414,338.246z"/>
			<path style="fill:#FFFFFF;" d="M82.705,318.938c-0.011,0-0.021,0-0.032-0.001c-0.233-0.017-0.408-0.22-0.391-0.453
				c0.468-6.313,4.757-9.469,4.939-9.6c0.19-0.136,0.454-0.092,0.59,0.096c0.137,0.19,0.094,0.454-0.095,0.591
				c-0.042,0.03-4.152,3.069-4.59,8.976C83.11,318.768,82.924,318.938,82.705,318.938z"/>
			<path style="fill:#FFFFFF;" d="M83.82,322.782c-0.115,0-0.23-0.047-0.314-0.139c-0.037-0.041-3.841-4.104-12.478-2.921
				c-0.236,0.033-0.445-0.13-0.477-0.361c-0.032-0.232,0.13-0.445,0.361-0.477c9.111-1.253,13.058,3.01,13.222,3.192
				c0.156,0.173,0.141,0.44-0.032,0.596C84.022,322.746,83.921,322.782,83.82,322.782z"/>
		</g>
	</g>
</g>
<g id="Shadows">
	<path style="fill:#E0E0E0;" d="M436.11,372.037l-150.906-87.125c-5.479-3.164-12.23-3.164-17.71,0L214.15,315.71
		c-3.853,2.224-3.853,7.785,0,10.009l150.906,87.125c5.479,3.164,12.23,3.164,17.71,0l53.344-30.798
		C439.962,379.822,439.962,374.262,436.11,372.037z"/>
	<ellipse style="fill:#E0E0E0;" cx="147.759" cy="384.289" rx="48.061" ry="27.748"/>
</g>
<g id="Device">
	<g>
		<path style="fill:#455A64;" d="M369.915,403.584l-121.712-70.27c-8.588-4.958-15.549-18.259-15.549-29.709V42.98
			c0-11.45,6.962-16.713,15.549-11.755l121.712,70.27c8.588,4.958,15.549,18.259,15.549,29.709V391.83
			C385.464,403.28,378.503,408.542,369.915,403.584z"/>
		<path style="fill:#37474F;" d="M383.93,93.326l-121.712-70.27c-3.672-2.12-7.044-2.366-9.704-1.064v0l-0.003,0.002
			c-0.327,0.16-0.643,0.344-0.947,0.551l-13.636,7.927c2.74-1.638,6.335-1.52,10.275,0.754l121.712,70.27
			c8.588,4.958,15.549,18.259,15.549,29.709V391.83c0,6.053-1.947,10.376-5.05,12.374l13.457-7.839l-0.002-0.002
			c3.427-1.824,5.61-6.293,5.61-12.703V123.035C399.479,111.585,392.518,98.284,383.93,93.326z"/>
		<path style="fill:#263238;" d="M385.464,131.205V391.83c0,6.053-1.947,10.376-5.05,12.374l13.457-7.839l-0.002-0.002
			c3.427-1.824,5.61-6.293,5.61-12.703V123.035c0-0.007,0-0.014,0-0.021l-14.016,8.138
			C385.463,131.17,385.464,131.187,385.464,131.205z"/>
		<polygon style="fill:#37474F;" points="399.479,143.268 385.464,151.36 385.464,157.678 399.479,149.587 		"/>
		<g>
			<path style="fill:#37474F;" d="M393.339,185.316L393.339,185.316c-1.254,0.724-2.27-0.045-2.27-1.716v-13.592
				c0-1.672,1.016-3.613,2.27-4.337l0,0c1.254-0.724,2.27,0.044,2.27,1.716v13.592C395.609,182.651,394.592,184.592,393.339,185.316
				z"/>
			<path style="fill:#455A64;" d="M391.069,183.6v-13.592c0-1.672,1.016-3.613,2.27-4.337c0.546-0.315,1.04-0.333,1.432-0.131
				l0.003-0.016l-1.695-0.879l-0.003,0.014c-0.397-0.225-0.907-0.215-1.471,0.11c-1.254,0.724-2.27,2.666-2.27,4.337v13.592
				c0,0.902,0.302,1.529,0.772,1.812l-0.003,0.014l1.781,0.928l0.003-0.016C391.391,185.168,391.069,184.531,391.069,183.6z"/>
		</g>
		<g>
			<path style="fill:#37474F;" d="M393.339,218.22L393.339,218.22c-1.254,0.724-2.27-0.044-2.27-1.716v-13.592
				c0-1.672,1.016-3.613,2.27-4.337l0,0c1.254-0.724,2.27,0.045,2.27,1.716v13.592C395.609,215.555,394.592,217.497,393.339,218.22z
				"/>
			<path style="fill:#455A64;" d="M391.069,216.504v-13.592c0-1.672,1.016-3.613,2.27-4.337c0.546-0.315,1.04-0.333,1.432-0.131
				l0.003-0.016l-1.695-0.879l-0.003,0.014c-0.397-0.225-0.907-0.215-1.471,0.11c-1.254,0.724-2.27,2.666-2.27,4.337v13.592
				c0,0.902,0.302,1.529,0.772,1.812l-0.003,0.014l1.781,0.928l0.003-0.016C391.391,218.072,391.069,217.436,391.069,216.504z"/>
		</g>
		<path style="fill:#BA68C8;" d="M365.684,108.824L246.066,39.75c-2.199-1.27-4.948,0.317-4.948,2.856v260.998
			c0,8.715,6.176,19.412,13.723,23.769l116.711,67.383c2.422,1.398,5.45-0.35,5.45-3.146V128.427
			C377.001,121.239,371.908,112.418,365.684,108.824z"/>
		<path style="opacity:0.5;fill:#FFFFFF;" d="M365.684,108.824L246.066,39.75c-2.199-1.27-4.948,0.317-4.948,2.856v260.998
			c0,8.715,6.176,19.412,13.723,23.769l116.711,67.383c2.422,1.398,5.45-0.35,5.45-3.146V128.427
			C377.001,121.239,371.908,112.418,365.684,108.824z"/>
		<polygon style="fill:#455A64;" points="281.833,57.783 283.686,65.588 323.333,88.447 330.179,84.798 		"/>
		<g>
			<path style="fill:#263238;" d="M293.485,65.324c0,1.294-0.909,1.819-2.029,1.172c-1.121-0.647-2.029-2.221-2.029-3.515
				s0.909-1.819,2.029-1.172C292.576,62.456,293.485,64.03,293.485,65.324z"/>
			<path style="fill:#263238;" d="M320.196,81.833c-0.21,0-0.422-0.052-0.618-0.162l-20.251-11.316
				c-0.612-0.342-0.831-1.115-0.489-1.727c0.342-0.613,1.117-0.831,1.727-0.489l20.25,11.316c0.612,0.342,0.831,1.115,0.489,1.727
				C321.073,81.599,320.641,81.833,320.196,81.833z"/>
		</g>
	</g>
</g>
<g id="Screen">
	<g>
		<g>
			<g>
				<path style="fill:#E0E0E0;" d="M349.019,147.911v273.781c0,4.978-1.829,8.323-4.625,9.42l-0.078,0.026l-0.013,0.013
					l-11.877,6.507l0.065-10.57l1.319-283.933l12.543-6.415C348.013,140.294,349.019,144.24,349.019,147.911z"/>
				<path style="fill:#E0E0E0;" d="M331.814,438.683l0.072-11.599l1.321-284.3l13.428-6.869l0.265,0.568
					c1.755,3.759,2.723,7.817,2.723,11.427v273.781c0,5.02-1.872,8.752-5.009,9.983l-0.031,0.011L331.814,438.683z M334.414,143.526
					l-1.318,283.565l-0.059,9.543l11.089-6.07c2.702-1.057,4.288-4.369,4.288-8.872V147.911c0-3.256-0.831-6.906-2.349-10.345
					L334.414,143.526z"/>
			</g>
			<g>
				<path style="fill:#E0E0E0;" d="M346.353,136.74l-12.543,6.415L199.575,65.062l-8.963-5.213l12.386-6.977l0.353-0.209V52.65
					c1.973-1.189,4.56-1.11,7.408,0.536l127.063,73.363C341.245,128.522,344.302,132.324,346.353,136.74z"/>
				<path style="fill:#E0E0E0;" d="M333.792,143.844l-0.286-0.166L189.394,59.841l13.644-7.709c2.243-1.352,5.092-1.164,8.023,0.53
					l127.062,73.363c3.401,1.96,6.601,5.772,8.778,10.46l0.246,0.528L333.792,143.844z M191.829,59.858l142,82.609l11.725-5.997
					c-2.063-4.225-4.97-7.63-8.035-9.396L210.456,53.71c-2.443-1.412-4.773-1.641-6.596-0.655l-0.554,0.337L191.829,59.858z"/>
			</g>
			<path style="fill:#FAFAFA;" d="M336.711,154.823v273.586c0,4.312-1.372,7.408-3.567,8.858l-0.719,0.392
				c-1.908,0.902-4.299,0.706-6.899-0.797l-61.421-35.46l-28.692-16.567l-36.949-21.336c-6.18-3.567-11.197-13.144-11.197-21.375
				V68.551c0-4.168,1.28-7.186,3.345-8.701c0.353-0.262,0.732-0.484,1.137-0.64c1.868-0.797,4.194-0.562,6.716,0.888l127.063,73.363
				c3.293,1.895,6.245,5.501,8.284,9.695C335.613,146.827,336.711,150.968,336.711,154.823z"/>
		</g>
		<g>
			<path style="fill:#FAFAFA;" d="M198.464,361.892c26.146,15.597,94.164,56.192,127.835,76.472c4.409,2.655,10.02-0.523,10.02-5.67
				V151.373c0-6.513-3.452-12.538-9.071-15.831L197.853,59.709c-4.41-2.584-9.959,0.596-9.959,5.707v277.859
				C187.894,350.91,191.906,357.981,198.464,361.892z"/>
			<path style="fill:#EBEBEB;" d="M197.959,362.756c20.995,12.524,41.985,25.056,62.968,37.599
				c12.26,7.329,24.518,14.662,36.771,22.004c5.478,3.282,10.955,6.567,16.43,9.854c2.438,1.464,4.876,2.929,7.312,4.395
				c2.23,1.341,4.601,3.277,7.238,3.635c4.636,0.629,8.515-3.04,8.64-7.592c0.014-0.491,0-0.985,0-1.476c0-2.917,0-5.835,0-8.752
				c0-12.21,0-24.42,0-36.63c0-17.738,0-35.477,0-53.215c0-20.056,0-40.111,0-60.167c0-18.968,0-37.937,0-56.905
				c0-14.49,0-28.979,0-43.469c0-6.754,0.025-13.508,0-20.262c-0.026-7.225-3.655-13.596-9.877-17.278
				c-2.954-1.748-5.923-3.471-8.885-5.207c-14.124-8.278-28.248-16.555-42.372-24.833c-16.763-9.824-33.525-19.648-50.288-29.472
				c-9.074-5.318-18.1-10.732-27.228-15.958c-5.461-3.126-11.723,0.568-11.775,6.811c-0.018,2.225,0,4.451,0,6.676
				c0,11.24,0,22.48,0,33.72c0,17.261,0,34.523,0,51.784c0,19.978,0,39.957,0,59.935c0,19.206,0,38.412,0,57.618
				c0,14.954,0,29.908,0,44.862c0,7.361-0.01,14.723,0,22.084C186.905,350.839,190.801,358.357,197.959,362.756
				c1.1,0.676,2.105-1.053,1.009-1.727c-6.791-4.173-10.075-11.205-10.075-18.992c0-2.747,0-5.494,0-8.241
				c0-11.764,0-23.529,0-35.293c0-17.388,0-34.775,0-52.163c0-19.727,0-39.453,0-59.18c0-18.781,0-37.561,0-56.342
				c0-14.586,0-29.172,0-43.757c0-7.005-0.037-14.012,0-21.017c0.01-1.846,0.455-3.617,1.943-4.882
				c2.239-1.904,4.938-1.511,7.259-0.151c3.338,1.956,6.676,3.913,10.014,5.869c14.298,8.379,28.595,16.759,42.893,25.138
				c16.383,9.602,32.766,19.203,49.15,28.805c8.777,5.144,17.579,10.247,26.331,15.432c5.743,3.402,8.823,9.215,8.835,15.823
				c0.004,2.391,0,4.783,0,7.174c0,11.161,0,22.322,0,33.483c0,16.997,0,33.995,0,50.992c0,19.632,0,39.264,0,58.896
				c0,19.065,0,38.129,0,57.193c0,15.295,0,30.59,0,45.886c0,8.336,0,16.672,0,25.008c0,0.604,0.017,1.21,0,1.814
				c-0.136,4.712-4.843,7.14-8.838,4.784c-10.327-6.09-20.556-12.352-30.841-18.513c-23.79-14.251-47.597-28.474-71.408-42.688
				c-8.42-5.027-16.841-10.052-25.263-15.076C197.86,360.368,196.853,362.096,197.959,362.756z"/>
		</g>
		<g>
			<g>
				<path style="fill:#BA68C8;" d="M205.256,100.599c0,2.128-1.494,2.99-3.337,1.926c-1.843-1.064-3.336-3.651-3.336-5.779
					c0-2.128,1.494-2.99,3.336-1.926C203.762,95.885,205.256,98.472,205.256,100.599z"/>
				<path style="fill:#BA68C8;" d="M201.92,102.526L201.92,102.526c-2.725-1.573-4.934,0.097-4.934,3.73v1.127l9.867,5.697v-1.127
					C206.853,108.319,204.645,104.099,201.92,102.526z"/>
			</g>
		</g>
		<path style="fill:#EBEBEB;" d="M327.247,135.542L197.853,59.709c-4.41-2.584-9.959,0.596-9.959,5.707v12.205l0.039,0.002
			l148.386,85.671v-11.921C336.319,144.861,332.866,138.836,327.247,135.542z"/>
		
			<ellipse transform="matrix(0.866 -0.5 0.5 0.866 -66.5788 158.3039)" style="fill:#455A64;" cx="262.106" cy="203.388" rx="34.061" ry="58.995"/>
		<g>
			<path style="fill:#263238;" d="M243.617,181.551c0,0-2.712,1.374-0.514,7.751s-2.775,9.564-4.07,7.057
				c0,0,0.084,4.043,4.993,4.043c4.909,0,5.785-4.064,5.785-4.064s1.767,1.937,1.767,7.374c0,5.437-5.193,25.883,12.978,25.883
				c18.171,0,17.839-15.481,17.839-15.481s4.656,0.084,4.656-6.884c0,0-7.079,4.398-7.079-5.426s1.619-22.266-5.878-22.266
				c0,0,2.578-5.335-2.555-8.752c-5.133-3.416-20.531,1.231-20.531,1.231s-4.629-2.78-7.942,0.504
				C239.032,176.519,243.617,181.551,243.617,181.551z"/>
			<path style="fill:#FFA8A7;" d="M252.441,210.17l-0.627,10.921l-1.242,21.497l-0.14,0.313c-3.5-3.187-6.816-6.795-9.873-10.694
				c-1.231-1.577-2.42-3.198-3.565-4.85c0.983-4.008,1.901-7.572,2.636-10.003c1.858-6.103,8.48-7.065,11.407-7.184
				C251.901,210.138,252.441,210.17,252.441,210.17z"/>
			<path style="fill:#BA68C8;" d="M279.393,257.214c-1.231-0.054-2.506-0.205-3.802-0.443c-4.234-0.778-8.761-2.495-13.481-5.218
				c-4.051-2.333-7.972-5.261-11.677-8.653c-3.5-3.187-6.816-6.795-9.873-10.694c-0.14-0.994-0.151-2.107,0.022-3.349
				c0.799-5.822,7.356-13.708,10.359-17.068c0.918-1.015,1.502-1.62,1.502-1.62l4.991-0.13l11.224,0.616l5.164,1.415
				c0.011,0,0.032,0.011,0.043,0.011c0.616,0.184,1.048,0.724,1.091,1.372l0.907,13.19l0.378,5.423l-0.594,2.106v0.011l-2.323,8.199
				c-0.518,1.858-0.173,3.846,0.961,5.401c0.4,0.551,0.853,1.199,1.318,1.934C276.844,251.64,278.248,254.179,279.393,257.214z"/>
			<g>
				<g>
					<g>
						<path style="fill:#FFA8A7;" d="M268.657,210.653l-14.309,9.267c-0.561,0.363-1.25-0.228-0.977-0.838l4.059-9.047v-14.878
							h11.226V210.653z"/>
					</g>
				</g>
				<path style="fill:#F28F8F;" d="M257.431,208.743c3.968-1.532,8.113-4.605,10.313-9.808v-3.778h-10.313V208.743z"/>
				<path style="fill:#FFA8A7;" d="M254.815,176.755c0,0-10.267,0.601-8.998,18.155c0.587,8.118,2.488,12.321,8.738,12.013
					c7.083-0.349,17.136-5.216,16.476-19.104C270.372,173.93,254.815,176.755,254.815,176.755z"/>
				<path style="fill:#263238;" d="M268.657,195.157c0,0-2.814,0.741-2.814-3.29c0,0-12.508-0.847-15.27-13.259
					c0,0,1.233-3.715,9.042-3.715c7.809,0,14.372,6.904,12.334,16.395L268.657,195.157z"/>
				<polygon style="fill:#F28F8F;" points="253.344,191.388 253.344,197.423 249.81,196.338 				"/>
				<g>
					<path style="fill:#263238;" d="M258.661,192.03c0,0.679-0.55,1.229-1.229,1.229c-0.679,0-1.229-0.551-1.229-1.229
						c0-0.679,0.551-1.229,1.229-1.229C258.11,190.8,258.661,191.351,258.661,192.03z"/>
					<path style="fill:#263238;" d="M250.574,191.172c0,0.679-0.55,1.23-1.23,1.23c-0.679,0-1.229-0.551-1.229-1.23
						c0-0.679,0.55-1.229,1.229-1.229C250.023,189.943,250.574,190.493,250.574,191.172z"/>
					<path style="fill:#263238;" d="M247.846,188.612l2.404-1.428c0,0-0.923-0.959-1.841-0.383
						C247.491,187.377,247.846,188.612,247.846,188.612z"/>
				</g>
				<path style="fill:#F28F8F;" d="M253.649,199.422c0,0,2.333,0.213,3.958-1.06c0,0,0.27,2.084-1.476,2.483
					C254.385,201.244,253.649,199.422,253.649,199.422z"/>
				<path style="fill:#FFA8A7;" d="M267.662,195.614c-0.028-1.021,0.136-2.047,0.553-2.979c0.469-1.044,1.296-2.099,2.732-2.138
					c3.153-0.086,3.579,2.949,3.536,4.03c-0.112,2.838-2.409,5.904-6.686,6.021L267.662,195.614z"/>
			</g>
			<path style="fill:#FFA8A7;" d="M288.921,255.778c-2.873,1.123-6.071,1.62-9.528,1.437c-1.231-0.054-2.506-0.205-3.802-0.443
				l0.011-7.054l0.043-15.534v-0.011c-1.177-2.15-2.02-4.17-2.614-6.038c-3.273-10.197,0.832-16.052,0.832-16.052
				c2.96,0.81,5.974,1.934,8.415,3.651c1.858,1.296,3.381,2.938,4.278,5.045C289.407,227.465,289.59,236.96,288.921,255.778z"/>
			<path style="opacity:0.2;" d="M267.947,236.29c0,0-4.761,6.203-12.471,3.432C255.476,239.722,263.314,245.391,267.947,236.29z"/>
		</g>
		<g>
			<path style="fill:#BA68C8;" d="M322.094,167.09c0,0.881-0.619,1.239-1.382,0.798c-0.763-0.441-1.382-1.512-1.382-2.394
				c0-0.881,0.619-1.239,1.382-0.798C321.475,165.136,322.094,166.208,322.094,167.09z"/>
			<path style="fill:#BA68C8;" d="M322.094,173.339c0,0.881-0.619,1.239-1.382,0.798c-0.763-0.441-1.382-1.512-1.382-2.394
				c0-0.881,0.619-1.239,1.382-0.798C321.475,171.386,322.094,172.458,322.094,173.339z"/>
			<path style="fill:#BA68C8;" d="M322.094,179.589c0,0.881-0.619,1.239-1.382,0.798c-0.763-0.441-1.382-1.512-1.382-2.394
				c0-0.881,0.619-1.239,1.382-0.798C321.475,177.636,322.094,178.708,322.094,179.589z"/>
		</g>
		<g>
			<path style="fill:#BA68C8;" d="M325.902,386.773c-0.085,0-0.171-0.021-0.25-0.067L198.06,313.04
				c-0.239-0.138-0.321-0.444-0.183-0.683c0.138-0.239,0.443-0.321,0.683-0.183l127.592,73.665c0.239,0.138,0.321,0.444,0.183,0.683
				C326.243,386.683,326.075,386.773,325.902,386.773z"/>
			<path style="fill:#BA68C8;" d="M325.902,373.839c-0.085,0-0.171-0.021-0.25-0.067L198.06,300.107
				c-0.239-0.138-0.321-0.444-0.183-0.683c0.138-0.239,0.443-0.321,0.683-0.183l127.592,73.665c0.239,0.138,0.321,0.444,0.183,0.683
				C326.243,373.749,326.075,373.839,325.902,373.839z"/>
			<path style="fill:#BA68C8;" d="M325.902,360.905c-0.085,0-0.171-0.022-0.25-0.067L198.06,287.173
				c-0.239-0.138-0.321-0.444-0.183-0.683c0.138-0.239,0.443-0.321,0.683-0.183l127.592,73.665c0.239,0.138,0.321,0.444,0.183,0.683
				C326.243,360.816,326.075,360.905,325.902,360.905z"/>
		</g>
		
			<text transform="matrix(0.866 0.5 0 1 245.6371 132.3436)" style="fill:#455A64; font-family:'Montserrat-Bold'; font-size:10.8023px;">Profile</text>
		
			<text transform="matrix(0.866 0.5 0 1 237.2077 260.7057)" style="fill:#455A64; font-family:'Montserrat-Bold'; font-size:10.7315px;">Yourname</text>
		<g>
			<text transform="matrix(0.866 0.5 0 1 264.8521 376.6283)"><tspan x="0" y="0" style="fill:#BA68C8; font-family:'Montserrat-Bold'; font-size:9.3749px;">600</tspan><tspan x="18.703" y="0" style="fill:#455A64; font-family:'Montserrat-Bold'; font-size:9.3749px;"> Followers</tspan></text>
			<text transform="matrix(0.866 0.5 0 1 198.0858 338.0128)"><tspan x="0" y="0" style="fill:#BA68C8; font-family:'Montserrat-Bold'; font-size:9.3749px;">500</tspan><tspan x="18.308" y="0" style="fill:#455A64; font-family:'Montserrat-Bold'; font-size:9.3749px;"> Following</tspan></text>
		</g>
		
			<text transform="matrix(0.866 0.5 0 1 232.8394 271.7106)" style="fill:#BA68C8; font-family:'Montserrat-Medium'; font-size:10.7315px;">@username</text>
		
			<text transform="matrix(0.866 0.5 0 1 226.455 288.1403)" style="fill:#455A64; font-family:'Montserrat-Medium'; font-size:10.7315px;">Bio description</text>
	</g>
</g>
<g id="Character">
	<g>
		<path style="fill:#263238;" d="M140.397,361.815c0,0,3.244-0.71,3.092,3.092c-0.161,4.03,2.786,9.394-4.457,11.328
			c-5.225,1.395-8.278,3.939-10.627,5.782c-2.647,2.077-9.77,4.107-15.141,1.703c-9.872-4.417,3.558-9.764,3.558-9.764
			L140.397,361.815z"/>
		<path style="fill:#263238;" d="M178.624,361.866c0,0,2.045-1.572,3.073,6.615c1.028,8.187,9.902,28.883-4.065,28.883
			c-7.175,0-7.805-11.166-7.773-18.77c0.032-7.604-0.269-14.895,0.722-16.167C171.572,361.156,178.624,361.866,178.624,361.866z"/>
		<path style="fill:#FFA8A7;" d="M147.747,293.635c0,0-1.046,5.27-1.001,9.126c0.045,3.855,0.673,14.295-0.001,21.071
			c-0.675,6.777-4.503,32.761-4.771,34.511c-0.172,1.129,0.03,2.943,0.196,4.09c0.096,0.663-0.174,1.319-0.71,1.72
			c-2.127,1.589-7.498,5.615-9.292,7.081c-2.257,1.844-8.86,10.455-15.345,2.723c0,0,14.296-9.653,15.007-13.863
			c0.71-4.21-2.167-40.695-3.008-44.98c-0.84-4.285-1.047-30.3-1.047-30.3L147.747,293.635z"/>
		<path style="fill:#FFA8A7;" d="M176.751,290.031v8.001c0,0.846,0.069,1.682,0.208,2.516c0.71,4.264,3.008,18.873,3.248,30.554
			c0.285,13.833,0.093,26.158-0.494,31.325c-0.587,5.167,2.488,15.138,2.757,16.657c0.607,3.424,0.093,5.614-4.956,5.663
			c-3.205,0.031-5.341-0.599-5.612-5.546c-0.271-4.947-0.828-14.46-0.828-14.46s-6.917-32.488-8.124-37.897
			c-1.207-5.409-7.396-31.385-7.801-34.021L176.751,290.031z"/>
		<path style="fill:#263238;" d="M132.043,149.736c0,0-3.042,1.541-0.577,8.693c2.465,7.152-3.112,10.726-4.565,7.915
			c0,0,0.094,4.535,5.6,4.535c5.506,0,6.488-4.558,6.488-4.558s1.982,2.172,1.982,8.27c0,6.098-5.824,29.029,14.556,29.029
			c20.38,0,20.007-17.363,20.007-17.363s5.222,0.094,5.222-7.721c0,0-7.94,4.932-7.94-6.085s1.816-24.973-6.593-24.973
			c0,0,2.891-5.984-2.866-9.816c-5.757-3.832-23.027,1.38-23.027,1.38s-5.192-3.118-8.908,0.566
			C126.902,144.092,132.043,149.736,132.043,149.736z"/>
		<g>
			<path style="fill:#FFA8A7;" d="M141.941,181.83c0,0-6.158-0.188-12.096,4.212c-5.938,4.4-16.366,12.034-16.366,12.034
				s-11.726-15.306-14.075-20.095l-7.575,5.56c0,0,11.41,29.934,19.723,29.934c6.185,0,24.303-13.669,24.303-13.669L141.941,181.83z
				"/>
		</g>
		<path style="fill:#FFA8A7;" d="M100.662,180.184c0,0,1.315-2.8,0.143-6.673c-0.337-1.115,0.603-4.309,0.055-4.786
			c-0.548-0.477-2.842-0.429-3.449,3.935c0,0-1.758-2.334-2.367-5.316c-0.609-2.982-1.129-6.925-4.379-4.608
			c-3.25,2.316-7.24,7.371-4.162,12.357c2.968,4.809,5.327,8.447,5.327,8.447L100.662,180.184z"/>
		<path style="fill:#263238;" d="M172.255,234.811c0,0,2.396,5.26,3.796,16.403c1.401,11.144,0.699,38.817,0.699,38.817
			s-11.309,5.398-25.986,5.398s-23.827-8.08-23.827-8.08s0.263,1.166,0.263-18.908c0-20.074,4.305-32.014,4.305-32.014
			L172.255,234.811z"/>
		<path style="fill:#BA68C8;" d="M160.127,182.375l5.786,1.587c0.715,0.196,1.227,0.822,1.278,1.561l1.438,20.871l-3.268,11.572
			c-0.587,2.08-0.194,4.307,1.078,6.054c1.663,2.283,4.014,5.999,5.815,10.792c0,0-6.739,8.528-22.264,8.528
			c-10.76,0-18.485-6.913-18.485-6.913s2.501-7.188,3.251-14.063c0.401-3.676-0.93-8.043-0.93-8.043s-6.353-3.01-5.189-11.526
			c1.164-8.516,13.302-20.966,13.302-20.966l5.596-0.147L160.127,182.375z"/>
		<g>
			<g>
				<g>
					<path style="fill:#FFA8A7;" d="M160.127,182.375l-16.048,10.393c-0.629,0.407-1.402-0.255-1.095-0.939l4.553-10.146v-16.687
						h12.591V182.375z"/>
				</g>
			</g>
			<path style="fill:#F28F8F;" d="M147.537,180.233c4.45-1.718,9.099-5.165,11.566-11v-4.237h-11.566V180.233z"/>
			<path style="fill:#FFA8A7;" d="M144.603,144.357c0,0-11.515,0.674-10.092,20.361c0.658,9.105,2.791,13.819,9.8,13.473
				c7.944-0.391,19.218-5.85,18.479-21.426S144.603,144.357,144.603,144.357z"/>
			<path style="fill:#263238;" d="M160.127,164.996c0,0-3.156,0.831-3.156-3.69c0,0-14.028-0.95-17.126-14.871
				c0,0,1.383-4.167,10.141-4.167c8.758,0,16.119,7.743,13.833,18.388L160.127,164.996z"/>
			<polygon style="fill:#F28F8F;" points="142.952,160.769 142.952,167.537 138.989,166.32 			"/>
			<g>
				<path style="fill:#263238;" d="M148.916,161.488c0,0.762-0.617,1.379-1.379,1.379c-0.762,0-1.379-0.617-1.379-1.379
					c0-0.762,0.617-1.379,1.379-1.379C148.298,160.109,148.916,160.727,148.916,161.488z"/>
				<path style="fill:#263238;" d="M139.846,160.527c0,0.762-0.617,1.379-1.379,1.379c-0.761,0-1.379-0.617-1.379-1.379
					c0-0.762,0.617-1.379,1.379-1.379C139.228,159.148,139.846,159.765,139.846,160.527z"/>
				<path style="fill:#263238;" d="M136.787,157.655l2.696-1.602c0,0-1.035-1.075-2.065-0.429S136.787,157.655,136.787,157.655z"/>
			</g>
			<path style="fill:#F28F8F;" d="M143.295,169.779c0,0,2.617,0.239,4.439-1.189c0,0,0.303,2.338-1.656,2.785
				C144.12,171.822,143.295,169.779,143.295,169.779z"/>
			<path style="fill:#FFA8A7;" d="M159.011,165.509c-0.031-1.145,0.152-2.296,0.621-3.34c0.525-1.172,1.454-2.354,3.064-2.398
				c3.536-0.097,4.014,3.308,3.966,4.52c-0.126,3.183-2.702,6.622-7.499,6.753L159.011,165.509z"/>
		</g>
		<path style="fill:#FFA8A7;" d="M165.967,183.976c0,0-5.78,6.82,2.663,22.417s9.129,16.883,9.129,16.883s-5.766,16.882-7.969,25.57
			l8.629,4.719c0,0,9.144-19.121,11.312-23.299c2.168-4.177,2.242-7.39,0-13.083c-2.242-5.693-8.887-19.897-10.635-23.96
			C177.347,189.159,171.807,185.578,165.967,183.976z"/>
		<path style="fill:#FFA8A7;" d="M169.79,248.846c0,0-2.238-0.054-4.735,3.129c-0.719,0.916-3.874,1.981-3.95,2.703
			c-0.076,0.722,1.281,2.573,5.203,0.564c0,0-0.902,2.779-2.993,4.991c-2.091,2.211-5.021,4.901-1.258,6.231
			c3.763,1.331,10.192,1.695,12.507-3.688c2.233-5.191,3.856-9.212,3.856-9.212L169.79,248.846z"/>
		<path style="opacity:0.2;" d="M159.33,211.128c0,0-5.339,6.957-13.986,3.85C145.344,214.977,154.134,221.335,159.33,211.128z"/>
	</g>
</g>
</svg>
